<svg width="108" height="80" viewBox="0 0 108 80" fill="none" xmlns="http://www.w3.org/2000/svg">
<g filter="url(#filter0_d_2_726)">
<rect x="8" y="7" width="92" height="64" rx="24" fill="white"/>
</g>
<path d="M50.355 27.6436C47.4684 28.6578 44.972 30.8423 43.5677 33.5728C43.0996 34.509 42.7095 35.5232 42.5535 36.6154C42.0074 39.1899 42.3975 41.9984 43.5677 44.3389C44.3478 45.8992 45.4401 47.2254 46.8443 48.3177C48.0926 49.3319 49.5749 50.112 51.2132 50.5021C53.2416 51.0482 55.348 51.0482 57.2984 50.5801C59.0927 50.19 60.8091 49.3319 62.2133 48.0056C63.6956 46.6793 64.7098 44.963 65.2559 43.0126C65.88 40.9842 65.9581 38.7998 65.568 36.6934C61.8232 36.6934 58.0785 36.6934 54.3338 36.6934C54.3338 38.2537 54.3338 39.814 54.3338 41.3743C56.5182 41.3743 58.7026 41.3743 60.8091 41.3743C60.575 42.8566 59.6388 44.2609 58.3906 45.041C57.6104 45.5871 56.6742 45.8992 55.7381 46.0552C54.8019 46.2113 53.7877 46.2113 52.8515 46.0552C51.9153 45.8992 50.9791 45.4311 50.199 44.885C48.9507 44.0268 47.9365 42.7006 47.4684 41.2183C46.9223 39.736 46.9223 38.0977 47.4684 36.5374C47.8585 35.5232 48.4046 34.509 49.1848 33.7288C50.121 32.7146 51.3692 32.0125 52.7735 31.7784C53.9437 31.5444 55.1139 31.5444 56.2842 31.9345C57.2204 32.2465 58.1565 32.7926 58.8587 33.4168C59.5608 32.7146 60.341 31.9345 61.0431 31.2323C61.4332 30.8423 61.8232 30.4522 62.2133 30.0621C61.1211 29.0479 59.7949 28.1897 58.3906 27.6436C55.8161 26.7855 52.9295 26.7855 50.355 27.6436Z" fill="white"/>
<path d="M50.355 27.6437C52.9295 26.7855 55.816 26.7855 58.3905 27.7217C59.7948 28.2678 61.1211 29.048 62.2133 30.1402C61.8232 30.5303 61.4331 30.9204 61.043 31.3104C60.3409 32.0126 59.5608 32.7927 58.8586 33.4949C58.1565 32.7927 57.2203 32.2466 56.2841 32.0126C55.1919 31.7005 53.9437 31.6225 52.7734 31.8565C51.4472 32.1686 50.1989 32.8707 49.1847 33.8069C48.4046 34.5871 47.7804 35.6013 47.4684 36.6155C46.1421 35.6013 44.8939 34.5871 43.5676 33.5729C44.9719 30.8423 47.4684 28.6579 50.355 27.6437Z" fill="#EA4335"/>
<path d="M42.5535 36.6153C42.7875 35.6011 43.0996 34.587 43.5677 33.5728C44.8939 34.587 46.1422 35.6011 47.4684 36.6153C46.9223 38.0976 46.9223 39.736 47.4684 41.2963C46.1422 42.3105 44.8939 43.3247 43.5677 44.3389C42.3975 41.9204 42.0074 39.1899 42.5535 36.6153Z" fill="#FBBC05"/>
<path d="M54.2557 36.6934C58.0005 36.6934 61.7452 36.6934 65.4899 36.6934C65.88 38.7998 65.802 40.9842 65.1779 43.0126C64.6318 44.885 63.6176 46.6013 62.1353 48.0056C60.887 46.9914 59.6388 46.0552 58.3125 45.041C59.5608 44.1828 60.4189 42.8566 60.731 41.3743C58.5466 41.3743 56.3621 41.3743 54.2557 41.3743C54.2557 39.814 54.2557 38.2537 54.2557 36.6934Z" fill="#4285F4"/>
<path d="M43.5676 44.339C44.8939 43.3248 46.1421 42.3106 47.4684 41.2964C47.9365 42.7787 48.9507 44.1049 50.1989 44.9631C50.9791 45.5092 51.9153 45.8993 52.8514 46.1333C53.7876 46.2894 54.7238 46.2894 55.738 46.1333C56.6742 45.9773 57.6104 45.5872 58.3905 45.1191C59.6388 46.1333 60.887 47.0695 62.2133 48.0837C60.809 49.332 59.1707 50.1901 57.2983 50.6582C55.2699 51.1263 53.1635 51.1263 51.2131 50.5802C49.6528 50.1901 48.1705 49.41 46.8443 48.3958C45.518 47.2255 44.3478 45.8213 43.5676 44.339Z" fill="#34A853"/>
<defs>
<filter id="filter0_d_2_726" x="0" y="0" width="108" height="80" filterUnits="userSpaceOnUse" color-interpolation-filters="sRGB">
<feFlood flood-opacity="0" result="BackgroundImageFix"/>
<feColorMatrix in="SourceAlpha" type="matrix" values="0 0 0 0 0 0 0 0 0 0 0 0 0 0 0 0 0 0 127 0" result="hardAlpha"/>
<feOffset dy="1"/>
<feGaussianBlur stdDeviation="4"/>
<feColorMatrix type="matrix" values="0 0 0 0 0 0 0 0 0 0 0 0 0 0 0 0 0 0 0.05 0"/>
<feBlend mode="normal" in2="BackgroundImageFix" result="effect1_dropShadow_2_726"/>
<feBlend mode="normal" in="SourceGraphic" in2="effect1_dropShadow_2_726" result="shape"/>
</filter>
</defs>
</svg>
